<svg xmlns="http://www.w3.org/2000/svg" viewBox="0 0 100 100" role="img" aria-label="Plain Dharma sun mark">
  <defs>
    <radialGradient id="gDisc" cx="44%" cy="40%" r="62%">
      <stop offset="0%" stop-color="#f2ab5b"/>
      <stop offset="55%" stop-color="#da7a2c"/>
      <stop offset="100%" stop-color="#c7651c" stop-opacity="0.9"/>
    </radialGradient>
  </defs>
  <path d="M50 13 C68 10 90 28 88 49 C91 70 69 90 49 88 C29 91 10 69 12 49 C9 31 32 15 50 13 Z" fill="url(#gDisc)"/>
  <g stroke="#1f1812" stroke-width="2.4" stroke-linecap="round">
    <line x1="78" y1="50" x2="98" y2="50"/><line x1="50" y1="78" x2="50" y2="98"/>
    <line x1="22" y1="50" x2="2" y2="50"/><line x1="50" y1="22" x2="50" y2="2"/>
    <line x1="69.8" y1="69.8" x2="83.9" y2="83.9"/><line x1="30.2" y1="69.8" x2="16.1" y2="83.9"/>
    <line x1="30.2" y1="30.2" x2="16.1" y2="16.1"/><line x1="69.8" y1="30.2" x2="83.9" y2="16.1"/>
  </g>
</svg>
